<?xml version="1.0" encoding="UTF-8"?>
<svg xmlns="http://www.w3.org/2000/svg" xmlns:xlink="http://www.w3.org/1999/xlink" viewBox="0 0 481.89 481.89">
  <defs>
    <style>
      .cls-1 {
        fill: none;
      }

      .cls-2 {
        isolation: isolate;
      }

      .cls-3 {
        clip-path: url(#clippath-1);
      }

      .cls-4 {
        fill: #0e1e35;
      }

      .cls-5 {
        fill: #4fabdc;
        mix-blend-mode: multiply;
        opacity: .53;
      }

      .cls-6 {
        clip-path: url(#clippath);
      }
    </style>
    <clipPath id="clippath">
      <rect class="cls-1" x="513.86" y="-1663.34" width="841.41" height="461.09"/>
    </clipPath>
    <clipPath id="clippath-1">
      <rect class="cls-1" x="1847.5" y="-1671.18" width="857.73" height="470.03"/>
    </clipPath>
  </defs>
  <g class="cls-2">
    <g id="Calque_1" data-name="Calque 1">
      <g class="cls-6">
        <path class="cls-5" d="M2442.32-1810.38l-107.79-57.39c-357.09-190.13-830.53,13.58-1057.47,454.98l-410.91,799.24c-75.65,147.14-233.45,215.04-352.49,151.67-119.04-63.38-154.2-234.02-78.55-381.16l821.83-1598.48c226.94-441.41,121.44-953.37-235.65-1143.48-357.09-190.13-830.54,13.57-1057.48,454.98l-273.94,532.82c-75.65,147.15-233.46,215.05-352.49,151.67l-323.31-172.14c-59.49-31.67-138.39,2.27-176.2,75.82-37.81,73.54-20.23,158.85,39.26,190.52l323.31,172.15c357.09,190.13,830.54-13.58,1057.48-454.99l136.97-266.41c75.65-147.15,233.45-215.04,352.49-151.67,119.04,63.39,154.21,234.02,78.55,381.16L4.1-1072.61C-222.85-631.21-117.34-119.25,239.75,70.88c357.09,190.13,830.54-13.57,1057.48-454.99l273.94-532.83c75.65-147.15,233.46-215.04,352.49-151.66l107.79,57.39c178.47,95.11,415.21-6.76,528.66-227.41,113.48-220.73,60.73-476.73-117.78-571.77"/>
      </g>
      <g class="cls-3">
        <path class="cls-5" d="M3813.38-1821.07l-109.88-58.5c-364.01-193.82-846.65,13.84-1077.99,463.81l-418.89,814.75c-77.12,149.99-237.98,219.21-359.33,154.61-121.35-64.61-157.19-238.56-80.07-388.56l837.77-1629.49c231.34-449.97,123.8-971.86-240.22-1165.67-364.02-193.82-846.65,13.84-1077.99,463.81l-279.26,543.16c-77.12,150.01-237.99,219.22-359.33,154.61l-329.59-175.48c-60.65-32.29-141.08,2.32-179.62,77.29-38.54,74.96-20.62,161.93,40.03,194.22l329.58,175.49c364.02,193.81,846.65-13.84,1077.99-463.82l139.63-271.58c77.12-150,237.98-219.21,359.33-154.61,121.35,64.62,157.2,238.56,80.08,388.56l-837.77,1629.5c-231.34,449.96-123.8,971.86,240.22,1165.67,364.01,193.82,846.65-13.84,1077.99-463.81l279.26-543.16c77.12-150,237.99-219.21,359.33-154.6l109.88,58.5c181.93,96.96,423.27-6.89,538.91-231.82,115.68-225.01,61.91-485.98-120.06-582.86"/>
      </g>
      <g>
        <path class="cls-4" d="M240.54,225.11l17.54,11.62,2.41-26.04c-.1-.06-.2-.12-.3-.19l-18.23-12.08-1.42,26.67Z"/>
        <path class="cls-4" d="M383.41,287.17c.16-.8.24-1.61.25-2.43l.38-171.51-2.89-.48c-12.94-2.17-32.22-4.75-47.65-5.55-.38-.07-.75-.11-1.09-.11-13.21-.26-28.91.11-45.32,4.91-.57.07-1.14.21-1.69.42-12.11,4.6-21.77,11.6-28.8,20.85-5.51-10.83-14.22-19.61-25.88-26.12-.17-.1-.34-.2-.55-.31l-.21-.12c-.38-.21-.77-.37-1.17-.5-15.66-7.1-31.25-9.64-44.38-11.18-.61-.08-1.25-.07-1.89.03-15.67-1.34-31.62-1.71-47.39-1.07l-2.89.11-8.43,59.71c-.05.3-.08.61-.1.92l-7.53,53.31c-.06.45-.1.9-.12,1.34l-7.72,54.68c-.05.24-.09.49-.13.75l-10.35,73.84,3.99-.03c15.52-.11,38.06.36,54.71,2,.15.01.29.03.44.03,13.54,1.69,29.48,4.3,45.18,10.85.15.09.31.18.47.26,15.24,7.64,24.36,18.56,27.11,32.45l.58,2.91,14.71,1.06.96-2.91c4.26-12.97,14.14-21.73,30.89-27.54,17.06-4.67,33.95-5.08,48.25-4.86.18,0,.36,0,.55-.02,16.99.7,39.27,3.16,53.86,5.29l3.97.58-.12-71.57ZM348.18,333.8c-7.35-.63-14.82-1.1-22.2-1.4-.31-.01-.61,0-.92.03-15.05-.21-32.94.29-51.62,5.43l-.38.12c-9.98,3.43-18.46,8.24-25.34,14.35l.58-7.24.4-2.8c.89-10.93,1.78-21.86,2.67-32.8-2.4-.48-4.78-1.21-7.11-2.26-1.64-.74-3.22-1.61-4.7-2.59l-3.15-2.09-1.4,26.17s0,.01,0,.02c-.43,7.62-.86,15.24-1.29,22.86-5.94-7.23-13.75-13.36-23.33-18.29-.42-.29-.87-.54-1.33-.73-17.73-7.56-35.43-10.47-50.36-12.31-.24-.03-.49-.05-.73-.06-13.29-1.3-26.81-2.04-40.26-2.22l7-49.55c.05-.25.09-.49.13-.74l8.01-56.74c.06-.45.1-.9.12-1.34l7.46-52.82c.05-.31.08-.61.1-.92l5.89-41.72c12.04-.11,24.13.37,35.91,1.43.5.04,1,.05,1.53-.02,11.77,1.44,25.6,3.78,39.3,10.12l.13.05c11.15,6.25,18.41,15.3,21.59,26.89-.45,6.84-.94,13.68-1.43,20.51l19.17,12.69s.06.03.09.05c.38-4.88.76-9.46.84-10.34.81-8.28,1.55-16.57,2.33-24.85,4.55-8.05,11.92-13.91,23.02-18.34.22-.05.43-.1.63-.16,14.67-4.48,29.06-4.88,41.23-4.67.23.04.47.05.7.07,11.92.56,23.93,1.74,35.76,3.48l-.39,151.72c-.16.8-.25,1.61-.25,2.44l-.13,50.49c-6.06-.76-12.18-1.41-18.26-1.93Z"/>
        <path class="cls-4" d="M251.34,286.17c.66.44,1.35.8,2.07,1.09l2.38-25.76-16.61-11-1.45,27.09c1.46.69,2.88,1.48,4.25,2.39l9.36,6.2Z"/>
        <path class="cls-4" d="M301.56,177.4c-2.57-1.7-5.63-2.29-8.63-1.66-2.98.63-5.53,2.38-7.18,4.95l-3.04,4.72c-2.41,3.74-6.11,6.3-10.43,7.2-1.4.29-2.87.4-4.35.31-.07,0-.13,0-.2-.01-1.89-.14-3.74-.64-5.47-1.41-.81-.36-1.6-.77-2.34-1.26l-16.9-11.2-1.82-1.2c-13.03-8.63-30.52-4.98-38.99,8.15-4.08,6.33-5.47,13.9-3.93,21.31,1.55,7.43,5.88,13.83,12.18,18l29.03,19.24,16.83,11.15,10.28,6.81c3.74,2.48,6.29,6.3,7.18,10.76.86,4.35.03,8.78-2.36,12.48-2.41,3.74-6.11,6.3-10.43,7.2-2.72.57-5.49.43-8.08-.36-1.49-.46-2.94-1.13-4.28-2.02l-9.36-6.2c-.6-.4-1.23-.75-1.85-1.1-2.72-1.53-5.63-2.6-8.68-3.16l-.17-.02c-.13-.01-.26-.03-.38-.05-3.4-.55-6.82-.47-10.15.23-7.35,1.54-13.66,5.89-17.75,12.24l-6.63,9.26c.09-.02.07.06.16.11.14.09.31.05.38-.04l6.63-9.26c2.34-3.63,6.04-6.19,10.35-7.1,4.3-.9,8.69-.05,12.36,2.38l13.18,8.73,5.53,3.67c1.26.83,2.61,1.58,4.01,2.21,1.82.82,3.69,1.41,5.57,1.83,11.21,2.47,22.93-2.14,29.4-12.18,4.08-6.33,5.48-13.9,3.93-21.31-1.55-7.43-5.88-13.83-12.18-18l-15.45-10.24-17.32-11.48-23.37-15.48c-3.69-2.45-6.23-6.21-7.15-10.59-.92-4.4-.09-8.9,2.33-12.65,2.41-3.74,6.11-6.3,10.43-7.2,4.29-.9,8.68-.05,12.36,2.38l7.46,4.94,18.74,12.42,1.87,1.24c.8.53,1.65,1.03,2.51,1.48,12.9,6.76,28.58,2.62,36.48-9.63l3.04-4.72c1.64-2.55,2.2-5.59,1.58-8.57-.63-3.01-2.38-5.59-4.93-7.28Z"/>
      </g>
    </g>
  </g>
</svg>