<?xml version="1.0" encoding="UTF-8"?>
<svg xmlns="http://www.w3.org/2000/svg" xmlns:xlink="http://www.w3.org/1999/xlink" viewBox="0 0 403.53 481.89">
  <defs>
    <style>
      .cls-1 {
        fill: none;
      }

      .cls-2 {
        isolation: isolate;
      }

      .cls-3 {
        clip-path: url(#clippath-1);
      }

      .cls-4 {
        clip-path: url(#clippath-2);
      }

      .cls-5 {
        fill: #4fabdc;
        mix-blend-mode: multiply;
        opacity: .53;
      }

      .cls-6 {
        fill: #4fabdb;
      }

      .cls-7 {
        clip-path: url(#clippath);
      }
    </style>
    <clipPath id="clippath">
      <rect class="cls-1" x="-900.77" y="-1101.35" width="841.41" height="461.09"/>
    </clipPath>
    <clipPath id="clippath-1">
      <rect class="cls-1" x="1315.37" y="-1105.98" width="1757.59" height="461.09"/>
    </clipPath>
    <clipPath id="clippath-2">
      <rect class="cls-1" x="432.87" y="-1109.19" width="857.73" height="470.03"/>
    </clipPath>
  </defs>
  <g class="cls-2">
    <g id="Calque_1" data-name="Calque 1">
      <g class="cls-7">
        <path class="cls-5" d="M1027.7-1248.39l-107.79-57.39c-357.09-190.13-830.53,13.58-1057.47,454.98L-548.48-51.55c-75.65,147.14-233.45,215.04-352.49,151.67-119.04-63.38-154.2-234.02-78.55-381.16L-157.69-1879.53c226.94-441.41,121.44-953.37-235.65-1143.48-357.09-190.13-830.54,13.57-1057.48,454.98l-273.94,532.82c-75.65,147.15-233.46,215.05-352.49,151.67l-323.31-172.14c-59.49-31.67-138.39,2.27-176.2,75.82-37.81,73.54-20.23,158.85,39.26,190.52l323.31,172.15c357.09,190.13,830.54-13.58,1057.48-454.99l136.97-266.41c75.65-147.15,233.45-215.04,352.49-151.67,119.04,63.39,154.21,234.02,78.55,381.16L-1410.53-510.62c-226.94,441.4-121.44,953.36,235.65,1143.48,357.09,190.13,830.54-13.57,1057.48-454.99L156.54-354.95c75.65-147.15,233.46-215.04,352.49-151.66l107.79,57.39c178.47,95.11,415.21-6.76,528.66-227.41,113.48-220.73,60.73-476.73-117.78-571.77"/>
      </g>
      <g class="cls-3">
        <path class="cls-5" d="M3200.3-1085.99l-106.7-54.93c-353.47-181.98-823.57,15.72-1050.01,441.58L1633.6,71.74c-75.48,141.96-232.17,207.85-350,147.2-117.83-60.67-152.16-224.9-76.67-366.86l819.99-1542.16c226.43-425.86,123.45-918.61-230.02-1100.58-353.47-181.98-823.58,15.72-1050.01,441.57l-273.33,514.05c-75.48,141.97-232.17,207.86-350,147.2l-320.04-164.76c-58.89-30.32-137.23,2.63-174.95,73.58-37.73,70.95-20.56,153.06,38.33,183.37L-13.09-1430.88c353.47,181.98,823.58-15.72,1050.01-441.58l136.66-257.02c75.48-141.96,232.17-207.85,350-147.2,117.83,60.67,152.16,224.9,76.68,366.86L780.28-367.66c-226.43,425.85-123.45,918.6,230.02,1100.58,353.47,181.98,823.58-15.72,1050.01-441.58l273.33-514.05c75.48-141.96,232.17-207.85,350-147.19l106.7,54.93c176.66,91.04,411.73-7.83,524.92-220.7,113.23-212.95,61.73-459.34-114.97-550.31"/>
      </g>
      <g class="cls-4">
        <path class="cls-5" d="M2398.75-1259.08l-109.88-58.5c-364.01-193.82-846.65,13.84-1077.99,463.81L791.99-39.02c-77.12,149.99-237.98,219.21-359.33,154.61-121.35-64.61-157.19-238.56-80.07-388.56l837.77-1629.49c231.34-449.97,123.8-971.86-240.22-1165.67-364.02-193.82-846.65,13.84-1077.99,463.81l-279.26,543.16c-77.12,150.01-237.99,219.22-359.33,154.61l-329.59-175.48c-60.65-32.29-141.08,2.32-179.62,77.29-38.54,74.96-20.62,161.93,40.03,194.22l329.58,175.49c364.02,193.81,846.65-13.84,1077.99-463.82l139.63-271.58c77.12-150,237.98-219.21,359.33-154.61,121.35,64.62,157.2,238.56,80.08,388.56L-86.78-507C-318.12-57.03-210.57,464.86,153.44,658.67c364.01,193.82,846.65-13.84,1077.99-463.81l279.26-543.16c77.12-150,237.99-219.21,359.33-154.6l109.88,58.5c181.93,96.96,423.27-6.89,538.91-231.82,115.68-225.01,61.91-485.98-120.06-582.86"/>
      </g>
      <g>
        <g>
          <path class="cls-6" d="M199.71,167.16l13.69,9.07,1.88-20.32c-.08-.05-.16-.1-.23-.15l-14.23-9.43-1.11,20.82Z"/>
          <path class="cls-6" d="M311.23,215.6c.13-.62.19-1.26.19-1.89l.29-133.88-2.25-.38c-10.1-1.69-25.15-3.71-37.2-4.33-.29-.06-.59-.08-.85-.08-10.31-.21-22.57.09-35.37,3.83-.45.06-.89.17-1.32.33-9.45,3.59-17,9.05-22.48,16.27-4.3-8.45-11.1-15.31-20.2-20.39-.13-.08-.27-.16-.43-.24l-.17-.1c-.3-.16-.6-.29-.91-.39-12.23-5.54-24.39-7.52-34.64-8.72-.48-.06-.97-.06-1.48.02-12.23-1.04-24.68-1.33-36.99-.83l-2.26.09-6.58,46.61c-.04.24-.06.48-.08.72l-5.88,41.61c-.05.35-.08.7-.09,1.04l-6.03,42.68c-.04.19-.07.38-.1.58l-8.08,57.64,3.12-.02c12.11-.09,29.71.28,42.71,1.56.11.01.23.02.34.03,10.57,1.32,23.01,3.36,35.27,8.47.12.07.24.14.37.2,11.9,5.97,19.02,14.49,21.16,25.33l.45,2.27,11.48.83.75-2.27c3.32-10.12,11.04-16.97,24.12-21.5,13.31-3.65,26.5-3.96,37.67-3.79.14,0,.28,0,.43-.01,13.26.54,30.65,2.47,42.04,4.13l3.1.45-.1-55.87ZM283.73,252c-5.74-.49-11.57-.86-17.33-1.09-.24,0-.48,0-.72.02-11.75-.16-25.71.23-40.29,4.24l-.3.09c-7.79,2.68-14.41,6.43-19.78,11.2l.45-5.65.31-2.19c.69-8.53,1.39-17.07,2.08-25.6-1.87-.38-3.73-.94-5.55-1.76-1.28-.58-2.52-1.26-3.67-2.02l-2.46-1.63-1.09,20.43s0,0,0,.01c-.34,5.95-.67,11.9-1.01,17.85-4.63-5.64-10.73-10.43-18.21-14.28-.33-.23-.68-.42-1.04-.57-13.84-5.9-27.66-8.17-39.31-9.61-.19-.02-.38-.04-.57-.04-10.37-1.01-20.93-1.59-31.43-1.73l5.47-38.68c.04-.19.07-.38.1-.58l6.25-44.29c.05-.35.08-.7.09-1.04l5.82-41.23c.04-.24.06-.48.08-.72l4.6-32.57c9.4-.09,18.83.29,28.03,1.12.39.03.78.04,1.2-.01,9.19,1.12,19.98,2.95,30.68,7.9l.1.04c8.7,4.88,14.37,11.94,16.86,20.99-.35,5.34-.73,10.68-1.12,16.01l14.97,9.9s.05.02.07.04c.3-3.81.59-7.39.66-8.07.63-6.46,1.21-12.93,1.82-19.4,3.56-6.29,9.3-10.86,17.97-14.32.17-.04.34-.08.49-.13,11.45-3.5,22.69-3.81,32.18-3.64.18.03.37.04.54.05,9.3.44,18.68,1.36,27.91,2.72l-.3,118.44c-.13.62-.19,1.26-.19,1.91l-.1,39.41c-4.73-.59-9.51-1.1-14.25-1.51Z"/>
          <path class="cls-6" d="M208.15,214.82c.52.34,1.06.62,1.62.85l1.86-20.11-12.96-8.59-1.13,21.14c1.14.54,2.25,1.16,3.32,1.87l7.3,4.84Z"/>
          <path class="cls-6" d="M247.35,129.92c-2.01-1.33-4.4-1.79-6.74-1.3-2.33.49-4.32,1.86-5.61,3.86l-2.38,3.69c-1.88,2.92-4.77,4.92-8.14,5.62-1.1.23-2.24.31-3.4.24-.05,0-.1,0-.16-.01-1.48-.11-2.92-.5-4.27-1.1-.63-.28-1.25-.6-1.83-.98l-13.19-8.74-1.42-.94c-10.17-6.74-23.82-3.89-30.43,6.36-3.19,4.94-4.27,10.85-3.06,16.64,1.21,5.8,4.59,10.79,9.51,14.05l22.66,15.02,13.14,8.7,8.02,5.32c2.92,1.94,4.91,4.92,5.6,8.4.67,3.4.02,6.86-1.84,9.74-1.88,2.92-4.77,4.92-8.14,5.62-2.13.45-4.28.34-6.31-.28-1.17-.36-2.29-.88-3.34-1.58l-7.3-4.84c-.47-.31-.96-.58-1.45-.86-2.13-1.19-4.39-2.03-6.77-2.46l-.13-.02c-.1-.01-.2-.02-.3-.04-2.65-.43-5.32-.36-7.92.18-5.74,1.21-10.66,4.6-13.86,9.55l-5.18,7.23c.07-.02.06.04.12.09.11.07.25.04.29-.03l5.17-7.23c1.83-2.84,4.72-4.83,8.08-5.54,3.35-.7,6.78-.04,9.65,1.86l10.29,6.82,4.32,2.86c.98.65,2.04,1.23,3.13,1.72,1.42.64,2.88,1.1,4.35,1.43,8.75,1.93,17.9-1.67,22.95-9.51,3.19-4.94,4.27-10.85,3.07-16.64-1.21-5.8-4.59-10.79-9.51-14.05l-12.06-7.99-13.52-8.96-18.24-12.09c-2.88-1.91-4.87-4.85-5.58-8.27-.72-3.44-.07-6.94,1.82-9.88,1.88-2.92,4.77-4.92,8.14-5.62,3.35-.7,6.78-.04,9.65,1.86l5.82,3.86,14.63,9.69,1.46.97c.63.42,1.29.8,1.96,1.16,10.07,5.28,22.31,2.05,28.48-7.52l2.38-3.69c1.28-1.99,1.72-4.37,1.23-6.69-.49-2.35-1.86-4.36-3.85-5.68Z"/>
        </g>
        <g>
          <path class="cls-6" d="M92.76,355.17l-.06-38.91,17.71-.03c12.08-.02,19.7,7.4,19.71,19.42.02,12.02-7.57,19.47-19.65,19.49l-17.71.03ZM98.92,321.88l.04,27.65,11.5-.02c9-.01,13.06-3.85,13.04-13.84-.02-9.99-4.09-13.82-13.09-13.8l-11.5.02Z"/>
          <path class="cls-6" d="M134.76,322.87v-6.68s6.26-.01,6.26-.01v6.68s-6.26.01-6.26.01ZM134.81,355.1l-.05-28.87h6.27s.05,28.86.05,28.86h-6.27Z"/>
          <path class="cls-6" d="M146.9,364.96l-.06-38.74h5.75s.01,8.01.01,8.01h.52c1.15-5.35,5.21-8.6,12-8.62,8.94-.01,14,6.08,14.02,15.02.01,8.94-4.91,14.99-13.91,15.01-6.5.01-10.69-3.41-11.86-8.69h-.23s.03,18,.03,18h-6.27ZM163.08,349.95c6.21-.01,9.81-2.4,9.8-9.31-.01-6.97-3.67-9.29-9.71-9.28-6.44.01-10.04,3.04-10.03,9.25v.52c.01,5.92,3.79,8.82,9.94,8.81Z"/>
          <path class="cls-6" d="M183.53,355.02l-.06-38.91h6.27s.06,38.9.06,38.9h-6.27Z"/>
          <path class="cls-6" d="M194.31,340.6c-.01-9,6.42-15.05,16-15.07,9.64-.02,16.09,6.01,16.11,15.02.01,8.89-6.42,14.99-16.06,15.01-9.58.02-16.03-6.07-16.05-14.96ZM220.26,340.56c0-6.16-2.92-9.52-9.94-9.51-6.97.01-9.87,3.38-9.86,9.54,0,6.1,2.92,9.4,9.89,9.39,7.03-.01,9.92-3.33,9.91-9.42Z"/>
          <path class="cls-6" d="M230.97,354.95l-.05-28.87h5.75s.01,8.7.01,8.7h.35c.75-4.82,3.88-9.3,11.07-9.31,6.56-.01,10.11,3.99,10.93,9.51h.35c.75-4.94,3.99-9.53,11.31-9.54,7.49-.01,11.27,5.09,11.28,12.06l.03,17.37h-6.21s-.03-15.67-.03-15.67c0-5.69-2.28-8.13-7.85-8.12-6.15,0-8.36,3.15-8.35,9.54l.02,14.29h-6.21s-.03-15.67-.03-15.67c0-5.69-2.22-8.13-7.79-8.12-6.21.01-8.36,3.15-8.35,9.54l.02,14.29h-6.27Z"/>
          <path class="cls-6" d="M286.36,347.89c0-4.47,3.59-6.8,9.28-7.45l13.12-1.42v-1.68c-.01-4.76-2.1-6.44-7.62-6.43-5.34,0-7.95,1.76-7.94,5.99v.23s-6.21,0-6.21,0v-.23c-.01-6.56,5.44-11.51,14.61-11.52,9.17-.01,13.3,4.97,13.32,11.88l.03,17.54h-5.75s-.01-7.19-.01-7.19h-.41c-1.5,4.88-6.08,7.79-12.64,7.8-5.98,0-9.76-2.77-9.77-7.53ZM297.8,350.89c6.56-.01,10.97-2.46,10.96-8.15l-11.32,1.3c-3.25.41-4.82,1.17-4.81,3.43,0,2.32,1.57,3.42,5.17,3.42Z"/>
          <path class="cls-6" d="M91.37,389.32v-.35s4.18,0,4.18,0v.75c.01,5.58,3.5,8.59,12.61,8.58,7.78-.01,11.32-2.17,11.31-6.58,0-4.36-2.62-5.92-8.31-7.07l-8.25-1.55c-6.33-1.21-11.39-3.87-11.4-10.32,0-5.29,4.51-10.64,15.66-10.65,10.97-.02,15.86,5.78,15.87,12.87v.35s-4.18,0-4.18,0v-.7c-.01-5.63-3.5-8.65-11.98-8.63-7.72.01-11.2,2.23-11.2,6.47,0,4.41,2.56,5.75,8.31,6.96l8.19,1.61c6.97,1.32,11.45,4.28,11.45,10.32,0,5.58-4.69,10.81-15.48,10.83-11.44.02-16.79-5.43-16.8-12.87Z"/>
          <path class="cls-6" d="M127.5,394.83c0-4.7,3.88-6.74,9.22-7.33l13.64-1.53v-2.21c-.01-5.58-2.45-7.78-8.73-7.77-6.15.01-9.4,2.22-9.39,7.28v.23s-4.12,0-4.12,0v-.23c-.01-6.04,4.98-10.98,13.8-11,8.71-.01,12.43,4.97,12.44,11.31l.03,17.95h-3.72s-.01-7.72-.01-7.72h-.29c-1.68,5.29-6.72,8.32-13.4,8.33-5.63,0-9.47-2.66-9.48-7.3ZM137.9,398.94c6.97-.01,12.48-3.1,12.47-10.01v-.23s-12.37,1.41-12.37,1.41c-4.3.41-6.38,1.46-6.38,4.42,0,2.9,1.92,4.41,6.28,4.4Z"/>
          <path class="cls-6" d="M161.19,401.52l-.05-28.69h3.72s.01,9,.01,9h.29c.98-4.88,5.04-9.59,12.18-9.6,8.07-.01,12.09,5.73,12.1,12.53l.03,16.73h-4.12s-.03-16.14-.03-16.14c0-5.92-2.86-9.35-9.42-9.34-6.97.01-10.62,4.26-10.61,11.63l.02,13.88h-4.12Z"/>
          <path class="cls-6" d="M207.58,401.44c-5.69,0-9.35-2.37-9.36-9.1l-.03-16.03h-5.11s0-3.53,0-3.53h5.11s-.01-6.86-.01-6.86h4.18s.01,6.85.01,6.85l11.38-.02v3.54s-11.37.02-11.37.02l.03,16.26c0,4.01,1.98,5.11,6.16,5.1h5.23s0,3.77,0,3.77h-6.21Z"/>
          <path class="cls-6" d="M216.85,387.08c-.01-8.71,5.78-14.94,15.01-14.95,8.42-.01,14.41,4.86,14.42,13.39,0,1.05-.11,1.92-.29,2.67l-25.26.04c.24,6.45,3.56,10.33,11.16,10.32,6.74-.01,9.87-2.51,9.86-6.69v-.41s4.12,0,4.12,0v.41c.01,5.98-5.91,10.12-13.92,10.13-9.23.01-15.11-5.78-15.12-14.9ZM220.74,385.68l21.66-.04c0-.29,0-.58,0-.87,0-6.04-3.85-9.23-10.58-9.22-7.43.01-10.79,3.85-11.07,10.12ZM229.37,368.88l7.25-7.56h5.63s-8.64,7.56-8.64,7.56h-4.24Z"/>
        </g>
        <g>
          <path class="cls-6" d="M257.01,383.47l-.02-9.65h1.16s.02,9.65.02,9.65h-1.16Z"/>
          <path class="cls-6" d="M262.6,376.48c.85,0,1.53.23,2.05.69.52.46.78,1.09.78,1.88v4.4s-1.14,0-1.14,0v-1.17c-.2.39-.51.7-.92.94-.41.23-.87.35-1.37.35-.68,0-1.24-.19-1.67-.56-.43-.38-.65-.86-.65-1.47,0-1.29,1.09-2.05,3.27-2.27l1.34-.15v-.14c0-.47-.15-.85-.46-1.12-.31-.28-.71-.41-1.22-.41-.47,0-.86.13-1.17.4-.31.26-.49.63-.53,1.09l-1.08-.2c.1-.68.4-1.23.92-1.64.51-.41,1.13-.62,1.86-.62ZM262.17,382.62c.66,0,1.18-.21,1.55-.62.37-.41.56-.96.56-1.65v-.33s-1.34.15-1.34.15c-1.41.16-2.11.61-2.11,1.35,0,.32.13.58.38.78.25.2.57.31.96.31Z"/>
          <path class="cls-6" d="M270.61,385.93v-9.35s1.14,0,1.14,0v1c.19-.32.49-.58.91-.79.41-.21.87-.32,1.36-.32,1.03,0,1.83.33,2.41.98.58.66.88,1.51.88,2.56,0,1.04-.29,1.89-.88,2.55-.59.66-1.4,1-2.43,1-.44,0-.86-.1-1.27-.29-.41-.19-.73-.45-.97-.77v3.44s-1.15,0-1.15,0ZM273.89,382.52c.68,0,1.23-.23,1.64-.69.41-.46.61-1.07.61-1.82,0-.75-.21-1.36-.62-1.82-.41-.46-.96-.69-1.64-.69-.67,0-1.21.23-1.61.69-.4.46-.61,1.07-.6,1.82,0,.75.2,1.36.61,1.82.41.46.94.69,1.62.69Z"/>
          <path class="cls-6" d="M282.81,377.69c-.25-.11-.55-.16-.89-.16-.58,0-1.06.28-1.42.84-.37.56-.55,1.38-.55,2.45v2.62s-1.15,0-1.15,0v-6.87s1.15,0,1.15,0v1.39c.2-.44.5-.8.9-1.08.4-.28.81-.42,1.24-.42.3,0,.56.04.79.12l-.07,1.12Z"/>
          <path class="cls-6" d="M289.92,379.67c0,.19,0,.37-.03.53h-5.43c.04.7.26,1.26.66,1.68.4.42.92.63,1.53.63.53,0,.96-.12,1.31-.36.34-.24.57-.57.67-1l1.09.26c-.17.66-.53,1.18-1.07,1.56-.54.37-1.21.56-2,.56-1.01,0-1.82-.34-2.44-1.02s-.92-1.52-.92-2.52c0-1.01.3-1.85.9-2.53.6-.68,1.41-1.02,2.42-1.02.99,0,1.79.31,2.39.93.6.62.9,1.39.9,2.3ZM284.53,379.24h4.16c-.06-.55-.27-.99-.63-1.33-.36-.34-.84-.5-1.43-.5-.54,0-.99.16-1.36.49-.37.32-.62.77-.73,1.34ZM288.43,373.77l-1.59,2.02h-.85s.98-2.02.98-2.02h1.46Z"/>
          <path class="cls-6" d="M291.41,385.9v-9.35s1.14,0,1.14,0v1c.19-.32.49-.58.91-.79.41-.21.87-.32,1.36-.32,1.03,0,1.83.33,2.41.98.58.66.88,1.51.88,2.56,0,1.04-.29,1.89-.88,2.55-.59.66-1.4,1-2.43,1-.44,0-.86-.1-1.27-.29-.41-.19-.73-.45-.97-.77v3.44s-1.15,0-1.15,0ZM294.69,382.48c.68,0,1.23-.23,1.64-.69.41-.46.61-1.07.61-1.82,0-.75-.21-1.36-.62-1.82-.41-.46-.96-.69-1.64-.69-.67,0-1.21.23-1.61.69-.4.46-.61,1.07-.6,1.82,0,.75.2,1.36.61,1.82.41.46.94.69,1.62.69Z"/>
          <path class="cls-6" d="M302.09,376.42c.85,0,1.53.23,2.05.69.52.46.78,1.09.78,1.88v4.4s-1.14,0-1.14,0v-1.17c-.2.39-.51.7-.92.94-.41.23-.87.35-1.37.35-.68,0-1.24-.19-1.67-.56-.43-.38-.65-.86-.65-1.46,0-1.29,1.09-2.05,3.27-2.27l1.34-.15v-.14c0-.47-.15-.85-.46-1.12-.31-.28-.71-.41-1.22-.41-.47,0-.86.13-1.17.4-.31.26-.49.63-.53,1.09l-1.08-.2c.1-.68.4-1.23.92-1.64.51-.41,1.13-.62,1.86-.62ZM301.66,382.55c.66,0,1.18-.21,1.55-.62.37-.41.56-.96.56-1.65v-.33s-1.34.15-1.34.15c-1.41.16-2.11.61-2.11,1.35,0,.32.13.58.38.78.25.2.57.31.96.31Z"/>
          <path class="cls-6" d="M256.42,398.08l1.08-6.87h1.72s-.18,1.05-.18,1.05c.55-.77,1.28-1.16,2.17-1.16,1.09,0,1.74.43,1.94,1.29.25-.37.6-.68,1.04-.93.44-.25.92-.37,1.44-.37.73,0,1.28.21,1.66.65.38.43.52.99.41,1.67l-.73,4.66h-1.72s.66-4.18.66-4.18c.07-.41.01-.73-.17-.97-.19-.24-.48-.36-.87-.36-.46,0-.85.18-1.16.55-.31.36-.52.86-.62,1.47l-.55,3.51h-1.7s.66-4.18.66-4.18c.06-.41,0-.73-.18-.97-.18-.24-.47-.36-.86-.36-.45,0-.84.19-1.16.55s-.53.86-.62,1.48l-.54,3.49h-1.72Z"/>
          <path class="cls-6" d="M275.73,393.93c0,.36-.05.73-.16,1.1h-5.1c.02.54.17.96.47,1.25.29.29.69.44,1.19.43.83,0,1.34-.35,1.55-1.05l1.62.43c-.2.62-.61,1.12-1.23,1.49-.62.38-1.34.57-2.16.57-.92,0-1.67-.29-2.25-.87-.58-.58-.87-1.33-.88-2.26,0-.66.14-1.29.41-1.88.28-.59.71-1.08,1.31-1.48.6-.4,1.31-.6,2.13-.6.97,0,1.73.28,2.28.85.55.57.82,1.24.82,2.01ZM273.96,393.81c.03-.42-.1-.76-.38-1.03-.28-.27-.66-.4-1.15-.4-.44,0-.81.13-1.12.38s-.54.61-.67,1.05h3.33ZM275.15,388.4l-1.96,2.02h-1.21s1.17-2.02,1.17-2.02h2Z"/>
          <path class="cls-6" d="M279.3,398.15c-.88,0-1.56-.26-2.05-.79-.48-.53-.72-1.23-.73-2.11,0-1.22.35-2.22,1.05-3.01.7-.79,1.62-1.18,2.75-1.18.89,0,1.52.3,1.9.91l.57-3.59h1.72s-1.51,9.65-1.51,9.65h-1.72s.12-.79.12-.79c-.21.27-.5.49-.89.66-.38.16-.79.25-1.21.25ZM279.79,396.67c.63,0,1.15-.23,1.56-.68.41-.46.62-1.04.62-1.75,0-.52-.14-.93-.42-1.23-.28-.3-.67-.46-1.17-.45-.61,0-1.12.23-1.52.69-.4.46-.61,1.04-.6,1.74,0,.52.14.93.41,1.23.27.3.65.46,1.12.45Z"/>
          <path class="cls-6" d="M291.75,393.91c0,.36-.05.73-.16,1.1h-5.1c.02.54.17.96.47,1.25.29.29.69.44,1.19.43.83,0,1.34-.35,1.55-1.05l1.62.43c-.2.62-.61,1.12-1.23,1.5-.62.38-1.34.57-2.16.57-.92,0-1.67-.29-2.25-.87-.58-.58-.87-1.33-.88-2.26,0-.66.14-1.29.41-1.88s.71-1.08,1.31-1.48c.6-.4,1.31-.6,2.13-.6.97,0,1.73.28,2.28.85.55.57.82,1.24.82,2.01ZM289.98,393.79c.03-.42-.1-.76-.38-1.03-.28-.27-.66-.4-1.15-.4-.44,0-.81.13-1.12.38s-.54.61-.67,1.05h3.33Z"/>
          <path class="cls-6" d="M295.74,398.13c-.92,0-1.68-.29-2.28-.89s-.9-1.34-.9-2.24c0-1.15.37-2.1,1.11-2.84.74-.74,1.7-1.11,2.86-1.12.85,0,1.56.23,2.12.69.56.46.85,1.06.87,1.78l-1.76.3c0-.37-.15-.68-.41-.93-.26-.24-.6-.37-1-.37-.6,0-1.08.21-1.44.64-.36.42-.54.98-.54,1.68,0,.53.14.96.42,1.29.28.34.65.5,1.11.5.41,0,.75-.1,1.04-.31.28-.21.47-.49.56-.85l1.68.34c-.17.71-.56,1.27-1.18,1.69-.61.41-1.36.62-2.26.62Z"/>
          <path class="cls-6" d="M300.1,398.01l1.08-6.87h1.72s-1.08,6.87-1.08,6.87h-1.72ZM303.16,389.78c-.21.2-.47.31-.78.31-.31,0-.56-.1-.76-.31s-.3-.46-.3-.76c0-.3.1-.55.3-.75.2-.2.45-.3.76-.3.31,0,.57.1.78.31.21.2.31.45.31.74,0,.3-.1.55-.31.76Z"/>
          <path class="cls-6" d="M303.48,398l1.08-6.87h1.72s-.16,1.03-.16,1.03c.63-.76,1.41-1.15,2.36-1.15.75,0,1.31.23,1.71.68.39.45.53,1.05.41,1.8l-.72,4.5h-1.7s.63-4.09.63-4.09c.07-.41,0-.74-.19-.99-.2-.25-.5-.37-.9-.37-.53,0-.97.22-1.32.64-.35.43-.59,1.03-.72,1.8l-.47,3.01h-1.72Z"/>
          <path class="cls-6" d="M318.64,393.86c0,.36-.05.73-.16,1.1h-5.1c.02.54.17.96.47,1.25.29.29.69.44,1.19.43.83,0,1.34-.35,1.55-1.05l1.62.43c-.2.62-.61,1.12-1.23,1.49-.62.38-1.34.57-2.16.57-.92,0-1.67-.29-2.25-.87-.58-.58-.87-1.33-.88-2.26,0-.66.14-1.29.41-1.88s.71-1.08,1.31-1.48,1.31-.6,2.13-.6c.97,0,1.73.28,2.28.85.55.57.82,1.24.82,2.01ZM316.87,393.74c.03-.42-.1-.76-.38-1.03-.28-.27-.66-.4-1.15-.4-.44,0-.81.13-1.12.38s-.54.61-.67,1.05h3.33Z"/>
        </g>
      </g>
    </g>
  </g>
</svg>