<?xml version="1.0" encoding="UTF-8"?>
<svg xmlns="http://www.w3.org/2000/svg" xmlns:xlink="http://www.w3.org/1999/xlink" viewBox="0 0 1752.83 465.4">
  <defs>
    <style>
      .cls-1 {
        fill: none;
      }

      .cls-2 {
        isolation: isolate;
      }

      .cls-3 {
        clip-path: url(#clippath-1);
      }

      .cls-4 {
        clip-path: url(#clippath-2);
      }

      .cls-5 {
        fill: #0e1e35;
      }

      .cls-6 {
        fill: #4fabdc;
        mix-blend-mode: multiply;
        opacity: .53;
      }

      .cls-7 {
        clip-path: url(#clippath);
      }
    </style>
    <clipPath id="clippath">
      <rect class="cls-1" x="-1820.26" y="-1676.21" width="1757.59" height="461.09"/>
    </clipPath>
    <clipPath id="clippath-1">
      <rect class="cls-1" x="-20.74" y="-1676.21" width="1757.59" height="461.09"/>
    </clipPath>
    <clipPath id="clippath-2">
      <rect class="cls-1" x="1780.15" y="-1670.89" width="1566.49" height="461.09"/>
    </clipPath>
  </defs>
  <g class="cls-2">
    <g id="Calque_1" data-name="Calque 1">
      <g class="cls-7">
        <path class="cls-6" d="M64.66-1656.22l-106.7-54.93c-353.47-181.98-823.57,15.72-1050.01,441.58l-409.99,771.08c-75.48,141.96-232.17,207.85-350,147.2-117.83-60.67-152.16-224.9-76.67-366.86l819.99-1542.16c226.43-425.86,123.45-918.61-230.02-1100.58-353.47-181.98-823.58,15.72-1050.01,441.57l-273.33,514.05c-75.48,141.97-232.17,207.86-350,147.2l-320.04-164.76c-58.89-30.32-137.23,2.63-174.95,73.58-37.73,70.95-20.56,153.06,38.33,183.37l320.04,164.77c353.47,181.98,823.58-15.72,1050.01-441.58l136.66-257.02c75.48-141.96,232.17-207.85,350-147.2,117.83,60.67,152.16,224.9,76.68,366.86l-819.99,1542.17c-226.43,425.85-123.45,918.6,230.02,1100.58,353.47,181.98,823.58-15.72,1050.01-441.58l273.33-514.05c75.48-141.96,232.17-207.85,350-147.19l106.7,54.93c176.66,91.04,411.73-7.83,524.92-220.7,113.23-212.95,61.73-459.34-114.97-550.31"/>
      </g>
      <g class="cls-3">
        <path class="cls-6" d="M1864.19-1656.22l-106.7-54.93c-353.47-181.98-823.57,15.72-1050.01,441.58L297.49-498.5c-75.48,141.96-232.17,207.85-350,147.2-117.83-60.67-152.16-224.9-76.67-366.86l819.99-1542.16c226.43-425.86,123.45-918.61-230.02-1100.58-353.47-181.98-823.58,15.72-1050.01,441.57l-273.33,514.05c-75.48,141.97-232.17,207.86-350,147.2l-320.04-164.76c-58.89-30.32-137.23,2.63-174.95,73.58-37.73,70.95-20.56,153.06,38.33,183.37l320.04,164.77c353.47,181.98,823.58-15.72,1050.01-441.58l136.66-257.02c75.48-141.96,232.17-207.85,350-147.2,117.83,60.67,152.16,224.9,76.68,366.86L-555.83-937.89C-782.27-512.04-679.28-19.29-325.81,162.68,27.66,344.66,497.77,146.97,724.2-278.89l273.33-514.05c75.48-141.96,232.17-207.85,350-147.19l106.7,54.93c176.66,91.04,411.73-7.83,524.92-220.7,113.23-212.95,61.73-459.34-114.97-550.31"/>
      </g>
      <g class="cls-4">
        <path class="cls-6" d="M3665.08-1650.9l-106.7-54.93c-353.47-181.98-823.57,15.72-1050.01,441.58l-409.99,771.08c-75.48,141.96-232.17,207.85-350,147.2-117.83-60.67-152.16-224.9-76.67-366.86l819.99-1542.16c226.43-425.86,123.45-918.61-230.02-1100.58-353.47-181.98-823.58,15.72-1050.01,441.57l-273.33,514.05c-75.48,141.97-232.17,207.86-350,147.2l-320.04-164.76c-58.89-30.32-137.23,2.63-174.95,73.58-37.73,70.95-20.56,153.06,38.33,183.37l320.04,164.77c353.47,181.98,823.58-15.72,1050.01-441.58l136.66-257.02c75.48-141.96,232.17-207.85,350-147.2,117.83,60.67,152.16,224.9,76.68,366.86l-819.99,1542.17c-226.43,425.85-123.45,918.6,230.02,1100.58,353.47,181.98,823.58-15.72,1050.01-441.58l273.33-514.05c75.48-141.96,232.17-207.85,350-147.19l106.7,54.93c176.66,91.04,411.73-7.83,524.92-220.7,113.23-212.95,61.73-459.34-114.97-550.31"/>
      </g>
      <g>
        <g>
          <path class="cls-5" d="M332.69,274.93l-.21-128.45,58.47-.1c39.88-.06,65.03,24.44,65.1,64.12.06,39.69-25.01,64.27-64.89,64.33l-58.47.1ZM353.03,165.05l.15,91.26,37.96-.06c29.72-.05,43.12-12.72,43.06-45.7-.05-32.97-13.49-45.61-43.21-45.56l-37.96.06Z"/>
          <path class="cls-5" d="M471.31,168.31l-.04-22.05,20.71-.03.04,22.05-20.71.03ZM471.48,274.71l-.15-95.28,20.71-.03.15,95.28-20.71.03Z"/>
          <path class="cls-5" d="M511.4,307.24l-.21-127.87,18.98-.03.04,26.46h1.73c3.81-17.65,17.21-28.4,39.64-28.44,29.52-.05,46.24,20.05,46.28,49.58.05,29.53-16.22,49.49-45.93,49.54-21.47.03-35.29-11.25-39.16-28.69h-.77s.1,59.43.1,59.43l-20.71.03ZM564.81,257.69c20.51-.03,32.39-7.91,32.35-30.73-.04-23.01-12.13-30.65-32.07-30.62-21.28.04-33.15,10.02-33.12,30.54v1.73c.03,19.56,12.51,29.12,32.83,29.09Z"/>
          <path class="cls-5" d="M632.3,274.45l-.21-128.45,20.71-.03.21,128.45-20.71.03Z"/>
          <path class="cls-5" d="M667.88,226.84c-.05-29.72,21.2-49.69,52.83-49.74,31.83-.05,53.14,19.85,53.19,49.57.05,29.33-21.2,49.5-53.02,49.55-31.63.05-52.95-20.04-52.99-49.38ZM753.58,226.7c-.03-20.32-9.64-31.43-32.83-31.39-23.01.04-32.57,11.17-32.54,31.49.03,20.13,9.64,31.04,32.64,31.01,23.2-.04,32.77-10.98,32.73-31.11Z"/>
          <path class="cls-5" d="M788.91,274.19l-.15-95.28,18.98-.03.05,28.76h1.15c2.47-15.92,12.8-30.7,36.57-30.74,21.66-.03,33.38,13.17,36.09,31.38h1.15c2.47-16.3,13.18-31.46,37.33-31.5,24.73-.04,37.22,16.81,37.26,39.82l.09,57.32-20.51.03-.08-51.76c-.03-18.79-7.52-26.83-25.93-26.8-20.32.03-27.59,10.4-27.56,31.49l.08,47.16-20.51.03-.08-51.76c-.03-18.79-7.33-26.83-25.73-26.8-20.51.03-27.59,10.4-27.56,31.49l.08,47.16-20.71.03Z"/>
          <path class="cls-5" d="M971.75,250.89c-.02-14.76,11.85-22.45,30.64-24.59l43.32-4.67v-5.56c-.03-15.72-6.95-21.27-25.16-21.24-17.64.03-26.26,5.8-26.23,19.79v.77s-20.51.03-20.51.03v-.77c-.04-21.66,17.96-37.99,48.25-38.04,30.29-.05,43.93,16.42,43.97,39.23l.09,57.9-18.98.03-.04-23.77h-1.34c-4.96,16.12-20.09,25.73-41.75,25.76-19.75.03-32.22-9.15-32.25-24.87ZM1009.53,260.8c21.66-.03,36.22-8.11,36.19-26.9l-37.38,4.28c-10.73,1.36-15.91,3.86-15.89,11.34.01,7.67,5.19,11.3,17.08,11.28Z"/>
          <path class="cls-5" d="M1118.78,233.02v-1.15s13.8-.02,13.8-.02v2.49c.03,18.4,11.55,28.35,41.65,28.31,25.69-.04,37.37-7.15,37.35-21.73-.02-14.38-8.66-19.54-27.45-23.34l-27.23-5.13c-20.9-3.99-37.6-12.78-37.63-34.06-.03-17.45,14.9-35.11,51.71-35.17,36.23-.06,52.37,19.09,52.41,42.48v1.15s-13.8.02-13.8.02v-2.3c-.03-18.6-11.55-28.55-39.54-28.5-25.5.04-36.99,7.34-36.97,21.34.02,14.57,8.47,18.97,27.45,22.96l27.04,5.32c23.01,4.37,37.79,14.13,37.82,34.07.03,18.4-15.47,35.68-51.13,35.74-37.77.06-55.44-17.93-55.48-42.47Z"/>
          <path class="cls-5" d="M1238.04,251.23c-.03-15.53,12.81-22.26,30.44-24.21l45.05-5.06v-7.29c-.04-18.4-8.11-25.68-28.81-25.64-20.32.03-31.05,7.34-31.02,24.02v.77s-13.61.02-13.61.02v-.77c-.03-19.94,16.43-36.26,45.57-36.31,28.76-.05,41.05,16.42,41.09,37.32l.1,59.24-12.27.02-.04-25.5h-.96c-5.53,17.46-22.19,27.45-44.24,27.49-18.6.03-31.26-8.77-31.29-24.11ZM1272.38,264.78c23.01-.04,41.2-10.23,41.17-33.04v-.77s-40.83,4.67-40.83,4.67c-14.18,1.37-21.08,4.83-21.06,14.6.02,9.59,6.35,14.56,20.73,14.54Z"/>
          <path class="cls-5" d="M1349.26,273.29l-.15-94.71,12.27-.02.05,29.72h.96c3.23-16.11,16.63-31.66,40.21-31.7,26.65-.04,39.91,18.92,39.94,41.35l.09,55.21-13.61.02-.09-53.3c-.03-19.56-9.44-30.85-31.11-30.82-23.01.04-35.06,14.05-35.02,38.4l.07,45.82-13.61.02Z"/>
          <path class="cls-5" d="M1502.42,273.04c-18.79.03-30.88-7.81-30.92-30.05l-.09-52.91-16.87.03-.02-11.69,16.87-.03-.04-22.62,13.8-.02.04,22.62,37.58-.06.02,11.69-37.58.06.09,53.68c.02,13.23,6.55,16.86,20.35,16.84l17.25-.03.02,12.46-20.51.03Z"/>
          <path class="cls-5" d="M1533.01,225.63c-.05-28.76,19.09-49.3,49.57-49.35,27.8-.05,47.57,16.03,47.62,44.21,0,3.45-.37,6.33-.94,8.82l-83.4.13c.8,21.28,11.75,34.11,36.86,34.07,22.24-.04,32.58-8.3,32.56-22.1v-1.34s13.61-.02,13.61-.02v1.34c.03,19.75-19.5,33.39-45.96,33.43-30.48.05-49.88-19.09-49.93-49.19ZM1545.85,221.01l71.51-.12c0-.96,0-1.92,0-2.87-.03-19.94-12.7-30.46-34.94-30.43-24.54.04-35.64,12.71-36.56,33.42ZM1574.32,165.56l23.92-24.96,18.6-.03-28.53,24.97-14,.02Z"/>
        </g>
        <g>
          <path class="cls-5" d="M202.52,203.38l9.82,6.51,1.35-14.58c-.05-.04-.11-.07-.17-.1l-10.21-6.76-.8,14.94Z"/>
          <path class="cls-5" d="M282.52,238.12c.09-.45.14-.9.14-1.36l.21-96.04-1.62-.27c-7.25-1.22-18.04-2.66-26.68-3.1-.21-.04-.42-.06-.61-.06-7.4-.15-16.19.06-25.37,2.75-.32.04-.64.12-.95.24-6.78,2.57-12.19,6.49-16.13,11.67-3.09-6.06-7.96-10.98-14.49-14.63-.09-.06-.19-.11-.31-.18l-.12-.07c-.21-.11-.43-.21-.65-.28-8.77-3.98-17.5-5.4-24.85-6.26-.34-.04-.7-.04-1.06.02-8.78-.75-17.7-.95-26.53-.6l-1.62.06-4.72,33.44c-.03.17-.04.34-.06.51l-4.22,29.85c-.04.25-.06.5-.06.75l-4.32,30.62c-.03.14-.05.27-.07.42l-5.79,41.35,2.24-.02c8.69-.06,21.31.2,30.64,1.12.08,0,.16.02.25.02,7.58.94,16.51,2.41,25.3,6.07.08.05.17.1.26.14,8.53,4.28,13.64,10.39,15.18,18.17l.32,1.63,8.24.59.53-1.63c2.38-7.26,7.92-12.17,17.3-15.42,9.55-2.62,19.01-2.84,27.02-2.72.1,0,.2,0,.31-.01,9.51.39,21.99,1.77,30.16,2.96l2.22.32-.07-40.08ZM262.79,264.23c-4.12-.35-8.3-.62-12.43-.78-.17,0-.34,0-.51.02-8.43-.12-18.44.16-28.9,3.04l-.21.07c-5.59,1.92-10.34,4.62-14.19,8.03l.32-4.05.22-1.57c.5-6.12,1-12.24,1.49-18.36-1.34-.27-2.68-.68-3.98-1.26-.92-.41-1.81-.9-2.63-1.45l-1.77-1.17-.78,14.66s0,0,0,.01c-.24,4.27-.48,8.53-.72,12.8-3.32-4.05-7.7-7.48-13.06-10.24-.24-.16-.48-.3-.74-.41-9.93-4.23-19.84-5.86-28.2-6.89-.14-.02-.27-.03-.41-.03-7.44-.73-15.01-1.14-22.54-1.24l3.92-27.75c.03-.14.05-.27.07-.42l4.49-31.77c.04-.25.06-.5.06-.75l4.18-29.58c.03-.17.04-.34.06-.51l3.3-23.36c6.74-.06,13.51.21,20.11.8.28.02.56.03.86,0,6.59.8,14.34,2.12,22.01,5.67l.07.03c6.24,3.5,10.31,8.57,12.09,15.06-.25,3.83-.53,7.66-.8,11.49l10.74,7.1s.03.02.05.03c.21-2.73.42-5.3.47-5.79.45-4.64.87-9.28,1.3-13.92,2.55-4.51,6.67-7.79,12.89-10.27.12-.03.24-.06.35-.09,8.22-2.51,16.27-2.73,23.08-2.61.13.02.26.03.39.04,6.67.31,13.4.97,20.02,1.95l-.22,84.96c-.09.45-.14.9-.14,1.37l-.07,28.27c-3.39-.42-6.82-.79-10.23-1.08Z"/>
          <path class="cls-5" d="M208.57,237.57c.37.25.76.45,1.16.61l1.33-14.42-9.3-6.16-.81,15.17c.82.39,1.61.83,2.38,1.34l5.24,3.47Z"/>
          <path class="cls-5" d="M236.69,176.66c-1.44-.95-3.15-1.28-4.83-.93-1.67.35-3.1,1.33-4.02,2.77l-1.7,2.64c-1.35,2.09-3.42,3.53-5.84,4.03-.79.17-1.61.22-2.44.17-.04,0-.07,0-.11,0-1.06-.08-2.09-.36-3.06-.79-.45-.2-.9-.43-1.31-.71l-9.46-6.27-1.02-.67c-7.3-4.83-17.09-2.79-21.83,4.56-2.28,3.54-3.07,7.78-2.2,11.93.87,4.16,3.29,7.74,6.82,10.08l16.26,10.77,9.42,6.24,5.76,3.81c2.1,1.39,3.52,3.53,4.02,6.02.48,2.44.02,4.92-1.32,6.99-1.35,2.09-3.42,3.53-5.84,4.03-1.53.32-3.07.24-4.53-.2-.84-.26-1.64-.63-2.4-1.13l-5.24-3.47c-.34-.22-.69-.42-1.04-.62-1.53-.86-3.15-1.46-4.86-1.77h-.1c-.07-.02-.14-.03-.22-.04-1.9-.31-3.82-.26-5.68.13-4.12.86-7.65,3.3-9.94,6.85l-3.71,5.19c.05-.01.04.03.09.06.08.05.18.03.21-.02l3.71-5.19c1.31-2.03,3.38-3.47,5.8-3.97,2.41-.51,4.86-.03,6.92,1.33l7.38,4.89,3.1,2.05c.7.47,1.46.88,2.25,1.24,1.02.46,2.07.79,3.12,1.02,6.28,1.38,12.84-1.2,16.47-6.82,2.28-3.54,3.07-7.78,2.2-11.94-.87-4.16-3.29-7.74-6.82-10.08l-8.65-5.73-9.7-6.43-13.08-8.67c-2.07-1.37-3.49-3.48-4-5.93-.51-2.47-.05-4.98,1.3-7.08,1.35-2.09,3.42-3.53,5.84-4.03,2.4-.5,4.86-.03,6.92,1.33l4.18,2.77,10.49,6.95,1.05.69c.45.3.92.58,1.4.83,7.22,3.79,16,1.47,20.43-5.39l1.7-2.64c.92-1.43,1.23-3.13.88-4.8-.35-1.68-1.33-3.13-2.76-4.08Z"/>
        </g>
      </g>
    </g>
  </g>
</svg>