<?xml version="1.0" encoding="UTF-8"?>
<svg xmlns="http://www.w3.org/2000/svg" xmlns:xlink="http://www.w3.org/1999/xlink" viewBox="0 0 1560.54 465.4">
  <defs>
    <style>
      .cls-1 {
        fill: none;
      }

      .cls-2 {
        isolation: isolate;
      }

      .cls-3 {
        clip-path: url(#clippath-1);
      }

      .cls-4 {
        fill: #4fabdc;
        mix-blend-mode: multiply;
        opacity: .53;
      }

      .cls-5 {
        fill: #4fabdb;
      }

      .cls-6 {
        clip-path: url(#clippath);
      }
    </style>
    <clipPath id="clippath">
      <rect class="cls-1" x="-1818.99" y="-1114.22" width="1757.59" height="461.09"/>
    </clipPath>
    <clipPath id="clippath-1">
      <rect class="cls-1" x="-18.1" y="-1108.9" width="1566.49" height="461.09"/>
    </clipPath>
  </defs>
  <g class="cls-2">
    <g id="Calque_1" data-name="Calque 1">
      <g class="cls-6">
        <path class="cls-4" d="M65.94-1094.24l-106.7-54.93c-353.47-181.98-823.57,15.72-1050.01,441.58L-1500.76,63.49c-75.48,141.96-232.17,207.85-350,147.2-117.83-60.67-152.16-224.9-76.67-366.86l819.99-1542.16c226.43-425.86,123.45-918.61-230.02-1100.58-353.47-181.98-823.58,15.72-1050.01,441.57l-273.33,514.05c-75.48,141.97-232.17,207.86-350,147.2l-320.04-164.76c-58.89-30.32-137.23,2.63-174.95,73.58-37.73,70.95-20.56,153.06,38.33,183.37l320.04,164.77c353.47,181.98,823.58-15.72,1050.01-441.58l136.66-257.02c75.48-141.96,232.17-207.85,350-147.2,117.83,60.67,152.16,224.9,76.68,366.86l-819.99,1542.17c-226.43,425.85-123.45,918.6,230.02,1100.58,353.47,181.98,823.58-15.72,1050.01-441.58L-800.72-230.96c75.48-141.96,232.17-207.85,350-147.19l106.7,54.93c176.66,91.04,411.73-7.83,524.92-220.7,113.23-212.95,61.73-459.34-114.97-550.31"/>
      </g>
      <g class="cls-3">
        <path class="cls-4" d="M1866.83-1088.91l-106.7-54.93c-353.47-181.98-823.57,15.72-1050.01,441.58L300.13,68.82C224.65,210.77,67.96,276.67-49.87,216.02-167.7,155.35-202.03-8.89-126.55-150.85l819.99-1542.16c226.43-425.86,123.45-918.61-230.02-1100.58-353.47-181.98-823.58,15.72-1050.01,441.57l-273.33,514.05c-75.48,141.97-232.17,207.86-350,147.2l-320.04-164.76c-58.89-30.32-137.23,2.63-174.95,73.58-37.73,70.95-20.56,153.06,38.33,183.37l320.04,164.77c353.47,181.98,823.58-15.72,1050.01-441.58l136.66-257.02c75.48-141.96,232.17-207.85,350-147.2,117.83,60.67,152.16,224.9,76.68,366.86L-553.19-370.58c-226.43,425.85-123.45,918.6,230.02,1100.58,353.47,181.98,823.58-15.72,1050.01-441.58L1000.17-225.63c75.48-141.96,232.17-207.85,350-147.19l106.7,54.93c176.66,91.04,411.73-7.83,524.92-220.7,113.23-212.95,61.73-459.34-114.97-550.31"/>
      </g>
      <g>
        <path class="cls-5" d="M140.41,274.93l-.21-128.45,58.47-.1c39.88-.06,65.03,24.44,65.1,64.12.06,39.69-25.01,64.27-64.89,64.33l-58.47.1ZM160.74,165.05l.15,91.26,37.96-.06c29.72-.05,43.12-12.72,43.06-45.7-.05-32.97-13.49-45.61-43.21-45.56l-37.96.06Z"/>
        <path class="cls-5" d="M279.02,168.31l-.04-22.05,20.71-.03.04,22.05-20.71.03ZM279.19,274.71l-.15-95.28,20.71-.03.15,95.28-20.71.03Z"/>
        <path class="cls-5" d="M319.11,307.24l-.21-127.87,18.98-.03.04,26.46h1.73c3.81-17.65,17.21-28.4,39.64-28.44,29.52-.05,46.24,20.05,46.28,49.58.05,29.53-16.22,49.49-45.93,49.54-21.47.03-35.29-11.25-39.16-28.69h-.77s.1,59.43.1,59.43l-20.71.03ZM372.52,257.69c20.51-.03,32.39-7.91,32.35-30.73-.04-23.01-12.13-30.65-32.07-30.62-21.28.04-33.15,10.02-33.12,30.54v1.73c.03,19.56,12.51,29.12,32.83,29.09Z"/>
        <path class="cls-5" d="M440.02,274.45l-.21-128.45,20.71-.03.21,128.45-20.71.03Z"/>
        <path class="cls-5" d="M475.59,226.84c-.05-29.72,21.2-49.69,52.83-49.74,31.83-.05,53.14,19.85,53.19,49.57.05,29.33-21.2,49.5-53.02,49.55-31.63.05-52.95-20.04-52.99-49.38ZM561.29,226.7c-.03-20.32-9.64-31.43-32.83-31.39-23.01.04-32.57,11.17-32.54,31.49.03,20.13,9.64,31.04,32.64,31.01,23.2-.04,32.77-10.98,32.73-31.11Z"/>
        <path class="cls-5" d="M596.62,274.19l-.15-95.28,18.98-.03.05,28.76h1.15c2.47-15.92,12.8-30.7,36.57-30.74,21.66-.03,33.38,13.17,36.09,31.38h1.15c2.47-16.3,13.18-31.46,37.33-31.5,24.73-.04,37.22,16.81,37.26,39.82l.09,57.32-20.51.03-.08-51.76c-.03-18.79-7.52-26.83-25.93-26.8-20.32.03-27.59,10.4-27.56,31.49l.08,47.16-20.51.03-.08-51.76c-.03-18.79-7.33-26.83-25.73-26.8-20.51.03-27.59,10.4-27.56,31.49l.08,47.16-20.71.03Z"/>
        <path class="cls-5" d="M779.46,250.89c-.02-14.76,11.85-22.45,30.64-24.59l43.32-4.67v-5.56c-.03-15.72-6.95-21.27-25.16-21.24-17.64.03-26.26,5.8-26.23,19.79v.77s-20.51.03-20.51.03v-.77c-.04-21.66,17.96-37.99,48.25-38.04,30.29-.05,43.93,16.42,43.97,39.23l.09,57.9-18.98.03-.04-23.77h-1.34c-4.96,16.12-20.09,25.73-41.75,25.76-19.75.03-32.22-9.15-32.25-24.87ZM817.24,260.8c21.66-.03,36.22-8.11,36.19-26.9l-37.38,4.28c-10.73,1.36-15.91,3.86-15.89,11.34.01,7.67,5.19,11.3,17.08,11.28Z"/>
        <path class="cls-5" d="M926.49,233.02v-1.15s13.8-.02,13.8-.02v2.49c.03,18.4,11.55,28.35,41.65,28.31,25.69-.04,37.37-7.15,37.35-21.73-.02-14.38-8.66-19.54-27.45-23.34l-27.23-5.13c-20.9-3.99-37.6-12.78-37.63-34.06-.03-17.45,14.9-35.11,51.71-35.17,36.23-.06,52.37,19.09,52.41,42.48v1.15s-13.8.02-13.8.02v-2.3c-.03-18.6-11.55-28.55-39.54-28.5-25.5.04-36.99,7.34-36.97,21.34.02,14.57,8.47,18.97,27.45,22.96l27.04,5.32c23.01,4.37,37.79,14.13,37.82,34.07.03,18.4-15.47,35.68-51.13,35.74-37.77.06-55.44-17.93-55.48-42.47Z"/>
        <path class="cls-5" d="M1045.75,251.23c-.03-15.53,12.81-22.26,30.44-24.21l45.05-5.06v-7.29c-.04-18.4-8.11-25.68-28.81-25.64-20.32.03-31.05,7.34-31.02,24.02v.77s-13.61.02-13.61.02v-.77c-.03-19.94,16.43-36.26,45.57-36.31,28.76-.05,41.05,16.42,41.09,37.32l.1,59.24-12.27.02-.04-25.5h-.96c-5.53,17.46-22.19,27.45-44.24,27.49-18.6.03-31.26-8.77-31.29-24.11ZM1080.09,264.78c23.01-.04,41.2-10.23,41.17-33.04v-.77s-40.83,4.67-40.83,4.67c-14.18,1.37-21.08,4.83-21.06,14.6.02,9.59,6.35,14.56,20.73,14.54Z"/>
        <path class="cls-5" d="M1156.97,273.29l-.15-94.71,12.27-.02.05,29.72h.96c3.23-16.11,16.63-31.66,40.21-31.7,26.65-.04,39.91,18.92,39.94,41.35l.09,55.21-13.61.02-.09-53.3c-.03-19.56-9.44-30.85-31.11-30.82-23.01.04-35.06,14.05-35.02,38.4l.07,45.82-13.61.02Z"/>
        <path class="cls-5" d="M1310.13,273.04c-18.79.03-30.88-7.81-30.92-30.05l-.09-52.91-16.87.03-.02-11.69,16.87-.03-.04-22.62,13.8-.02.04,22.62,37.58-.06.02,11.69-37.58.06.09,53.68c.02,13.23,6.55,16.86,20.35,16.84l17.25-.03.02,12.46-20.51.03Z"/>
        <path class="cls-5" d="M1340.72,225.63c-.05-28.76,19.09-49.3,49.57-49.35,27.8-.05,47.57,16.03,47.62,44.21,0,3.45-.37,6.33-.94,8.82l-83.4.13c.8,21.28,11.75,34.11,36.86,34.07,22.24-.04,32.58-8.3,32.56-22.1v-1.34s13.61-.02,13.61-.02v1.34c.03,19.75-19.5,33.39-45.96,33.43-30.48.05-49.88-19.09-49.93-49.19ZM1353.56,221.01l71.51-.12c0-.96,0-1.92,0-2.87-.03-19.94-12.7-30.46-34.94-30.43-24.54.04-35.64,12.71-36.56,33.42ZM1382.03,165.56l23.92-24.96,18.6-.03-28.53,24.97-14,.02Z"/>
      </g>
    </g>
  </g>
</svg>