<?xml version="1.0" encoding="UTF-8"?>
<svg xmlns="http://www.w3.org/2000/svg" xmlns:xlink="http://www.w3.org/1999/xlink" viewBox="0 0 843.01 465.4">
  <defs>
    <style>
      .cls-1 {
        fill: none;
      }

      .cls-2 {
        isolation: isolate;
      }

      .cls-3 {
        clip-path: url(#clippath-1);
      }

      .cls-4 {
        clip-path: url(#clippath-2);
      }

      .cls-5 {
        fill: #4fabdc;
        mix-blend-mode: multiply;
        opacity: .53;
      }

      .cls-6 {
        fill: #4fabdb;
      }

      .cls-7 {
        clip-path: url(#clippath);
      }
    </style>
    <clipPath id="clippath">
      <rect class="cls-1" x="-1349.72" y="-1109.6" width="841.41" height="461.09"/>
    </clipPath>
    <clipPath id="clippath-1">
      <rect class="cls-1" x="866.42" y="-1114.22" width="1757.59" height="461.09"/>
    </clipPath>
    <clipPath id="clippath-2">
      <rect class="cls-1" x="-16.08" y="-1117.43" width="857.73" height="470.03"/>
    </clipPath>
  </defs>
  <g class="cls-2">
    <g id="Calque_1" data-name="Calque 1">
      <g class="cls-7">
        <path class="cls-5" d="M578.75-1256.64l-107.79-57.39c-357.09-190.13-830.53,13.58-1057.47,454.98L-997.43-59.8c-75.65,147.14-233.45,215.04-352.49,151.67-119.04-63.38-154.2-234.02-78.55-381.16l821.83-1598.48c226.94-441.41,121.44-953.37-235.65-1143.48-357.09-190.13-830.54,13.57-1057.48,454.98l-273.94,532.82c-75.65,147.15-233.46,215.05-352.49,151.67l-323.31-172.14c-59.49-31.67-138.39,2.27-176.2,75.82-37.81,73.54-20.23,158.85,39.26,190.52l323.31,172.15c357.09,190.13,830.54-13.58,1057.48-454.99l136.97-266.41c75.65-147.15,233.45-215.04,352.49-151.67,119.04,63.39,154.21,234.02,78.55,381.16l-821.83,1598.48c-226.94,441.4-121.44,953.36,235.65,1143.48,357.09,190.13,830.54-13.57,1057.48-454.99L-292.41-363.19c75.65-147.15,233.46-215.04,352.49-151.66l107.79,57.39c178.47,95.11,415.21-6.76,528.66-227.41,113.48-220.73,60.73-476.73-117.78-571.77"/>
      </g>
      <g class="cls-3">
        <path class="cls-5" d="M2751.35-1094.24l-106.7-54.93c-353.47-181.98-823.57,15.72-1050.01,441.58L1184.64,63.49c-75.48,141.96-232.17,207.85-350,147.2-117.83-60.67-152.16-224.9-76.67-366.86l819.99-1542.16c226.43-425.86,123.45-918.61-230.02-1100.58-353.47-181.98-823.58,15.72-1050.01,441.57L24.59-1843.29c-75.48,141.97-232.17,207.86-350,147.2l-320.04-164.76c-58.89-30.32-137.23,2.63-174.95,73.58-37.73,70.95-20.56,153.06,38.33,183.37l320.04,164.77c353.47,181.98,823.58-15.72,1050.01-441.58l136.66-257.02c75.48-141.96,232.17-207.85,350-147.2,117.83,60.67,152.16,224.9,76.68,366.86L331.33-375.9C104.89,49.95,207.88,542.7,561.35,724.67c353.47,181.98,823.58-15.72,1050.01-441.58l273.33-514.05c75.48-141.96,232.17-207.85,350-147.19l106.7,54.93c176.66,91.04,411.73-7.83,524.92-220.7,113.23-212.95,61.73-459.34-114.97-550.31"/>
      </g>
      <g class="cls-4">
        <path class="cls-5" d="M1949.8-1267.33l-109.88-58.5c-364.01-193.82-846.65,13.84-1077.99,463.81L343.04-47.27C265.93,102.72,105.06,171.94-16.29,107.34c-121.35-64.61-157.19-238.56-80.07-388.56l837.77-1629.49c231.34-449.97,123.8-971.86-240.22-1165.67-364.02-193.82-846.65,13.84-1077.99,463.81l-279.26,543.16c-77.12,150.01-237.99,219.22-359.33,154.61l-329.59-175.48c-60.65-32.29-141.08,2.32-179.62,77.29-38.54,74.96-20.62,161.93,40.03,194.22l329.58,175.49c364.02,193.81,846.65-13.84,1077.99-463.82l139.63-271.58c77.12-150,237.98-219.21,359.33-154.61,121.35,64.62,157.2,238.56,80.08,388.56L-535.73-515.24c-231.34,449.96-123.8,971.86,240.22,1165.67,364.01,193.82,846.65-13.84,1077.99-463.81l279.26-543.16c77.12-150,237.99-219.21,359.33-154.6l109.88,58.5c181.93,96.96,423.27-6.89,538.91-231.82,115.68-225.01,61.91-485.98-120.06-582.86"/>
      </g>
      <g>
        <g>
          <path class="cls-6" d="M94.95,221.14l-.18-113.22,51.52-.08c35.14-.06,57.3,21.54,57.36,56.52.06,34.98-22.04,56.64-57.18,56.7l-51.52.08ZM112.87,124.29l.13,80.44,33.45-.05c26.18-.04,37.99-11.21,37.94-40.28-.05-29.06-11.89-40.2-38.07-40.16l-33.45.05Z"/>
          <path class="cls-6" d="M217.12,127.16l-.03-19.43,18.24-.03.03,19.43-18.24.03ZM217.27,220.95l-.14-83.98,18.24-.03.14,83.98-18.24.03Z"/>
          <path class="cls-6" d="M252.46,249.62l-.18-112.71,16.72-.03.04,23.32h1.52c3.35-15.55,15.16-25.04,34.93-25.07,26.02-.04,40.74,17.68,40.78,43.7.04,26.02-14.29,43.62-40.47,43.66-18.92.03-31.1-9.92-34.5-25.29h-.68s.08,52.38.08,52.38l-18.24.03ZM299.52,205.94c18.08-.03,28.54-6.97,28.51-27.08-.03-20.28-10.69-27.02-28.26-26.99-18.75.03-29.21,8.83-29.18,26.92v1.52c.03,17.24,11.02,25.67,28.93,25.64Z"/>
          <path class="cls-6" d="M359.02,220.72l-.18-113.22,18.24-.03.18,113.22-18.24.03Z"/>
          <path class="cls-6" d="M390.38,178.76c-.04-26.19,18.68-43.8,46.55-43.84,28.04-.05,46.82,17.5,46.87,43.69.04,25.85-18.68,43.63-46.72,43.67-27.87.05-46.65-17.67-46.7-43.52ZM465.89,178.64c-.03-17.91-8.49-27.7-28.93-27.67-20.27.03-28.7,9.85-28.67,27.76.03,17.74,8.49,27.36,28.76,27.33,20.44-.03,28.87-9.68,28.84-27.42Z"/>
          <path class="cls-6" d="M497.06,220.49l-.14-83.98,16.72-.03.04,25.35h1.01c2.17-14.03,11.27-27.06,32.22-27.09,19.09-.03,29.41,11.61,31.8,27.66h1.01c2.17-14.37,11.61-27.73,32.9-27.77,21.79-.03,32.8,14.82,32.83,35.09l.08,50.52-18.08.03-.07-45.62c-.03-16.56-6.63-23.65-22.84-23.62-17.91.03-24.31,9.16-24.28,27.75l.07,41.57-18.08.03-.07-45.62c-.03-16.56-6.46-23.65-22.68-23.62-18.08.03-24.31,9.16-24.28,27.75l.07,41.57-18.24.03Z"/>
          <path class="cls-6" d="M658.21,199.95c-.02-13.01,10.44-19.79,26.99-21.67l38.17-4.12v-4.9c-.03-13.86-6.12-18.75-22.17-18.72-15.54.03-23.14,5.11-23.12,17.44v.68s-18.07.03-18.07.03v-.68c-.03-19.09,15.82-33.48,42.51-33.53,26.69-.04,38.71,14.47,38.74,34.58l.08,51.03-16.72.03-.03-20.95h-1.18c-4.37,14.2-17.7,22.67-36.79,22.7-17.4.03-28.39-8.07-28.42-21.92ZM691.5,208.69c19.09-.03,31.92-7.15,31.89-23.71l-32.94,3.77c-9.46,1.2-14.02,3.4-14,9.99.01,6.76,4.58,9.96,15.05,9.94Z"/>
          <path class="cls-6" d="M90.88,320.49v-1.01s12.16-.02,12.16-.02v2.2c.03,16.22,10.18,24.99,36.7,24.95,22.64-.04,32.93-6.31,32.91-19.15-.02-12.67-7.63-17.22-24.19-20.58l-24-4.52c-18.42-3.52-33.13-11.27-33.16-30.02-.02-15.38,13.13-30.94,45.56-31,31.93-.05,46.15,16.82,46.18,37.44v1.01s-12.16.02-12.16.02v-2.03c-.03-16.39-10.18-25.16-34.84-25.12-22.47.04-32.59,6.47-32.57,18.81.02,12.84,7.46,16.72,24.19,20.24l23.83,4.69c20.28,3.85,33.3,12.45,33.33,30.02.03,16.22-13.63,31.45-45.05,31.5-33.28.05-48.85-15.8-48.88-37.43Z"/>
          <path class="cls-6" d="M196,336.55c-.02-13.69,11.29-19.62,26.83-21.34l39.69-4.46v-6.42c-.04-16.22-7.14-22.63-25.39-22.6-17.91.03-27.36,6.47-27.33,21.17v.68s-11.99.02-11.99.02v-.68c-.03-17.57,14.48-31.96,40.15-32,25.34-.04,36.17,14.47,36.2,32.89l.08,52.22-10.81.02-.04-22.47h-.84c-4.87,15.39-19.56,24.2-38.98,24.23-16.39.03-27.55-7.73-27.57-21.25ZM226.26,348.49c20.27-.03,36.31-9.01,36.27-29.12v-.68s-35.98,4.11-35.98,4.11c-12.5,1.2-18.58,4.25-18.56,12.87.01,8.45,5.6,12.83,18.27,12.81Z"/>
          <path class="cls-6" d="M294.02,355.99l-.14-83.48,10.81-.02.04,26.19h.84c2.85-14.2,14.65-27.91,35.43-27.94,23.48-.04,35.16,16.67,35.2,36.44l.08,48.67-11.99.02-.08-46.98c-.03-17.24-8.32-27.19-27.41-27.16-20.27.03-30.89,12.39-30.86,33.85l.07,40.39-11.99.02Z"/>
          <path class="cls-6" d="M429.01,355.77c-16.56.03-27.21-6.88-27.24-26.49l-.08-46.64-14.87.02-.02-10.31,14.87-.02-.03-19.94,12.16-.02.03,19.94,33.11-.05.02,10.31-33.11.05.08,47.31c.02,11.66,5.77,14.86,17.93,14.84l15.2-.02.02,10.98-18.08.03Z"/>
          <path class="cls-6" d="M455.98,313.99c-.04-25.35,16.82-43.46,43.68-43.5,24.49-.04,41.92,14.13,41.96,38.97,0,3.04-.33,5.58-.83,7.77l-73.48.12c.71,18.76,10.35,30.06,32.48,30.03,19.6-.03,28.71-7.31,28.69-19.48v-1.18s11.99-.02,11.99-.02v1.18c.03,17.4-17.18,29.43-40.49,29.47-26.86.04-43.95-16.83-43.99-43.36ZM467.3,309.91l63.01-.1c0-.84,0-1.69,0-2.53-.03-17.57-11.19-26.85-30.79-26.82-21.62.03-31.4,11.2-32.22,29.46ZM492.39,261.04l21.08-22,16.39-.03-25.13,22.01-12.33.02Z"/>
        </g>
        <g>
          <path class="cls-6" d="M572.81,303.48l-.04-28.09h3.37s.04,28.08.04,28.08h-3.37Z"/>
          <path class="cls-6" d="M589.08,283.15c2.46,0,4.44.67,5.95,2.01,1.51,1.35,2.27,3.17,2.27,5.47l.02,12.81h-3.33s0-3.41,0-3.41c-.58,1.14-1.47,2.05-2.67,2.72-1.2.68-2.53,1.02-3.98,1.02-1.98,0-3.6-.54-4.86-1.64-1.26-1.1-1.89-2.52-1.89-4.26,0-3.76,3.16-5.96,9.51-6.6l3.89-.44v-.4c0-1.37-.45-2.47-1.33-3.27-.89-.81-2.07-1.21-3.55-1.2-1.38,0-2.51.39-3.41,1.16-.9.77-1.41,1.83-1.54,3.18l-3.13-.59c.29-1.98,1.18-3.57,2.67-4.76,1.49-1.19,3.3-1.79,5.41-1.79ZM587.84,301c1.93,0,3.44-.6,4.52-1.79,1.08-1.19,1.62-2.79,1.62-4.8v-.95s-3.89.44-3.89.44c-4.1.46-6.15,1.77-6.14,3.94,0,.93.37,1.69,1.09,2.28.73.59,1.66.89,2.8.89Z"/>
          <path class="cls-6" d="M612.37,310.64l-.04-27.21h3.37s0,2.89,0,2.89c.55-.93,1.43-1.69,2.63-2.31,1.2-.61,2.52-.92,3.95-.92,2.99,0,5.33.95,7.03,2.87,1.7,1.91,2.55,4.39,2.55,7.43,0,3.02-.85,5.49-2.57,7.42-1.72,1.93-4.07,2.9-7.06,2.91-1.27,0-2.5-.28-3.69-.85-1.19-.57-2.13-1.31-2.82-2.24l.02,10h-3.37ZM621.92,300.71c1.98,0,3.57-.67,4.76-2.01,1.19-1.34,1.78-3.1,1.78-5.3,0-2.19-.6-3.96-1.79-5.29-1.19-1.33-2.78-2-4.76-2-1.96,0-3.52.67-4.7,2.01-1.18,1.34-1.76,3.1-1.76,5.3,0,2.2.59,3.96,1.77,5.29,1.18,1.33,2.75,2,4.7,2Z"/>
          <path class="cls-6" d="M647.88,286.66c-.74-.32-1.6-.47-2.58-.47-1.69,0-3.07.82-4.14,2.45-1.07,1.63-1.6,4-1.6,7.12v7.62s-3.36,0-3.36,0l-.03-19.99h3.37s0,4.04,0,4.04c.58-1.27,1.45-2.32,2.61-3.14,1.16-.82,2.37-1.23,3.61-1.24.87,0,1.64.12,2.3.35l-.19,3.25Z"/>
          <path class="cls-6" d="M668.56,292.42c0,.56-.02,1.07-.08,1.55l-15.79.03c.11,2.01.75,3.63,1.93,4.86,1.18,1.23,2.67,1.84,4.47,1.84,1.53,0,2.8-.35,3.81-1.04,1-.69,1.65-1.65,1.94-2.9l3.17.75c-.5,1.93-1.54,3.44-3.11,4.53-1.57,1.09-3.51,1.63-5.81,1.64-2.94,0-5.3-.98-7.09-2.96-1.79-1.98-2.68-4.43-2.69-7.33,0-2.94.87-5.39,2.63-7.36,1.76-1.97,4.1-2.96,7.04-2.97,2.88,0,5.2.9,6.95,2.71,1.75,1.81,2.62,4.04,2.63,6.68ZM652.89,291.18l12.1-.02c-.16-1.59-.77-2.87-1.83-3.84-1.06-.98-2.45-1.46-4.17-1.46-1.56,0-2.88.47-3.96,1.41-1.08.94-1.8,2.24-2.14,3.91ZM664.25,275.25l-4.63,5.88h-2.46s2.85-5.87,2.85-5.87h4.25Z"/>
          <path class="cls-6" d="M672.91,310.54l-.04-27.21h3.37s0,2.89,0,2.89c.55-.93,1.43-1.69,2.63-2.31,1.2-.61,2.52-.92,3.95-.92,2.99,0,5.33.95,7.03,2.87,1.7,1.92,2.55,4.39,2.55,7.43,0,3.02-.85,5.49-2.57,7.42-1.72,1.93-4.07,2.9-7.06,2.91-1.27,0-2.5-.28-3.69-.85-1.19-.57-2.13-1.31-2.82-2.24l.02,10h-3.37ZM682.46,300.61c1.98,0,3.57-.67,4.76-2.01,1.19-1.34,1.78-3.1,1.78-5.3,0-2.19-.6-3.96-1.79-5.29-1.19-1.33-2.78-2-4.76-2-1.96,0-3.52.67-4.7,2.01-1.18,1.34-1.76,3.1-1.76,5.3,0,2.2.59,3.96,1.77,5.29,1.18,1.33,2.75,2,4.7,2Z"/>
          <path class="cls-6" d="M703.97,282.96c2.46,0,4.44.67,5.95,2.01,1.51,1.35,2.27,3.17,2.27,5.47l.02,12.81h-3.33s0-3.41,0-3.41c-.58,1.14-1.47,2.05-2.67,2.72-1.2.68-2.53,1.02-3.98,1.02-1.98,0-3.6-.54-4.86-1.64-1.26-1.1-1.89-2.52-1.89-4.26,0-3.76,3.16-5.96,9.51-6.6l3.89-.44v-.4c0-1.37-.45-2.47-1.33-3.27-.89-.8-2.07-1.21-3.55-1.2-1.38,0-2.51.39-3.41,1.16-.9.77-1.41,1.83-1.54,3.18l-3.13-.59c.29-1.98,1.18-3.57,2.67-4.77,1.49-1.19,3.3-1.79,5.41-1.79ZM702.73,300.81c1.93,0,3.44-.6,4.52-1.79,1.08-1.19,1.62-2.79,1.62-4.8v-.95s-3.89.44-3.89.44c-4.1.46-6.15,1.77-6.14,3.94,0,.93.37,1.69,1.09,2.28.73.59,1.66.89,2.8.89Z"/>
          <path class="cls-6" d="M571.09,345.99l3.14-20h5s-.51,3.05-.51,3.05c1.61-2.25,3.71-3.38,6.3-3.38,3.17,0,5.05,1.25,5.64,3.76.74-1.09,1.75-1.99,3.03-2.7,1.28-.72,2.68-1.08,4.18-1.08,2.12,0,3.73.62,4.84,1.88,1.11,1.26,1.51,2.87,1.2,4.86l-2.12,13.57h-5s1.92-12.17,1.92-12.17c.21-1.19.04-2.14-.5-2.84-.54-.7-1.38-1.05-2.52-1.05-1.35,0-2.48.53-3.39,1.59-.91,1.06-1.51,2.49-1.8,4.29l-1.61,10.2h-4.96s1.92-12.17,1.92-12.17c.18-1.19,0-2.14-.52-2.84-.53-.7-1.36-1.05-2.5-1.05-1.32,0-2.45.54-3.37,1.61s-1.53,2.51-1.82,4.31l-1.57,10.16h-5Z"/>
          <path class="cls-6" d="M627.29,333.92c0,1.06-.16,2.13-.47,3.21l-14.84.02c.06,1.56.51,2.76,1.35,3.61.85.85,2,1.27,3.45,1.26,2.41,0,3.91-1.02,4.52-3.06l4.72,1.26c-.58,1.8-1.77,3.25-3.58,4.35-1.81,1.1-3.91,1.65-6.29,1.66-2.67,0-4.85-.84-6.55-2.53-1.7-1.69-2.55-3.88-2.55-6.58,0-1.93.4-3.75,1.2-5.46.8-1.71,2.08-3.14,3.82-4.31,1.74-1.17,3.81-1.75,6.19-1.76,2.83,0,5.04.82,6.63,2.47,1.59,1.65,2.39,3.6,2.39,5.85ZM622.13,333.57c.08-1.22-.29-2.21-1.1-2.99-.81-.78-1.93-1.17-3.35-1.16-1.27,0-2.36.37-3.27,1.12s-1.56,1.76-1.96,3.06l9.68-.02ZM625.6,317.82l-5.7,5.88h-3.53s3.4-5.87,3.4-5.87h5.83Z"/>
          <path class="cls-6" d="M637.66,346.2c-2.57,0-4.55-.76-5.95-2.29-1.4-1.53-2.11-3.58-2.11-6.15,0-3.54,1.01-6.46,3.06-8.75,2.05-2.29,4.71-3.44,7.99-3.44,2.59,0,4.43.88,5.52,2.65l1.65-10.44h5s-4.4,28.09-4.4,28.09h-5s.35-2.29.35-2.29c-.61.8-1.47,1.43-2.58,1.91-1.11.48-2.29.72-3.53.72ZM639.08,341.87c1.82,0,3.34-.67,4.54-1.99,1.2-1.32,1.8-3.02,1.8-5.08,0-1.51-.41-2.7-1.22-3.59-.81-.88-1.94-1.33-3.39-1.32-1.77,0-3.25.67-4.42,2.01-1.17,1.34-1.76,3.02-1.76,5.06,0,1.51.4,2.7,1.2,3.59.79.88,1.88,1.33,3.26,1.32Z"/>
          <path class="cls-6" d="M673.9,333.84c0,1.06-.16,2.13-.47,3.21l-14.84.02c.06,1.56.51,2.76,1.35,3.61.85.85,2,1.27,3.45,1.26,2.41,0,3.91-1.02,4.52-3.06l4.72,1.26c-.58,1.8-1.77,3.25-3.58,4.35-1.81,1.1-3.91,1.65-6.29,1.66-2.67,0-4.85-.84-6.55-2.53-1.7-1.69-2.55-3.88-2.55-6.58,0-1.93.4-3.75,1.2-5.46s2.08-3.14,3.82-4.31c1.74-1.17,3.81-1.75,6.19-1.76,2.83,0,5.04.82,6.63,2.47,1.59,1.65,2.39,3.6,2.39,5.85ZM668.74,333.5c.08-1.22-.29-2.21-1.1-2.99-.81-.78-1.93-1.17-3.35-1.17-1.27,0-2.36.37-3.27,1.12s-1.56,1.76-1.96,3.06l9.68-.02Z"/>
          <path class="cls-6" d="M685.5,346.12c-2.67,0-4.88-.86-6.63-2.59-1.75-1.73-2.62-3.9-2.63-6.52,0-3.36,1.07-6.12,3.24-8.28,2.16-2.16,4.94-3.24,8.33-3.25,2.49,0,4.54.67,6.17,2.01,1.63,1.35,2.47,3.08,2.53,5.19l-5.12.88c-.03-1.08-.43-1.98-1.19-2.7-.77-.71-1.73-1.07-2.9-1.07-1.75,0-3.15.62-4.2,1.85-1.06,1.23-1.58,2.87-1.58,4.9,0,1.53.41,2.79,1.24,3.77.82.98,1.89,1.46,3.22,1.46,1.19,0,2.19-.3,3.01-.9.82-.6,1.36-1.42,1.62-2.48l4.88.98c-.5,2.06-1.64,3.7-3.42,4.91-1.78,1.21-3.97,1.81-6.56,1.81Z"/>
          <path class="cls-6" d="M698.2,345.79l3.14-20h5s-3.14,19.99-3.14,19.99h-5ZM707.08,321.83c-.61.6-1.36.9-2.26.9-.9,0-1.64-.29-2.22-.89-.58-.59-.87-1.33-.88-2.2,0-.87.29-1.6.87-2.18.58-.58,1.32-.88,2.22-.88.9,0,1.65.29,2.26.89.61.59.91,1.31.92,2.16,0,.87-.3,1.61-.91,2.2Z"/>
          <path class="cls-6" d="M708.03,345.77l3.14-20h5s-.47,3.01-.47,3.01c1.82-2.22,4.11-3.34,6.86-3.34,2.17,0,3.82.66,4.96,1.98,1.14,1.32,1.54,3.07,1.2,5.24l-2.08,13.09h-4.96s1.85-11.9,1.85-11.9c.21-1.19.02-2.15-.56-2.87-.58-.73-1.46-1.09-2.62-1.09-1.53,0-2.82.63-3.85,1.87-1.03,1.24-1.73,2.99-2.09,5.24l-1.37,8.77h-5Z"/>
          <path class="cls-6" d="M752.13,333.72c0,1.06-.16,2.13-.47,3.21l-14.84.02c.06,1.56.51,2.76,1.35,3.61.85.85,2,1.27,3.45,1.26,2.41,0,3.91-1.02,4.52-3.06l4.72,1.26c-.58,1.8-1.77,3.25-3.58,4.35-1.81,1.1-3.91,1.65-6.29,1.66-2.67,0-4.85-.84-6.55-2.53-1.7-1.69-2.55-3.88-2.55-6.58,0-1.93.4-3.75,1.2-5.46.8-1.71,2.08-3.14,3.82-4.31s3.81-1.75,6.19-1.76c2.83,0,5.04.82,6.63,2.47,1.59,1.65,2.39,3.6,2.39,5.85ZM746.97,333.37c.08-1.22-.29-2.21-1.1-2.99-.81-.78-1.93-1.17-3.35-1.16-1.27,0-2.36.37-3.27,1.12s-1.56,1.76-1.96,3.06l9.68-.02Z"/>
        </g>
      </g>
    </g>
  </g>
</svg>